<?xml version="1.0" encoding="UTF-8" standalone="no"?>
<svg
   xmlns:dc="http://purl.org/dc/elements/1.1/"
   xmlns:cc="http://creativecommons.org/ns#"
   xmlns:rdf="http://www.w3.org/1999/02/22-rdf-syntax-ns#"
   xmlns:svg="http://www.w3.org/2000/svg"
   xmlns="http://www.w3.org/2000/svg"
   viewBox="0 0 1133.8533 642.52002"
   height="642.52002"
   width="1133.8533"
   xml:space="preserve"
   id="svg2"
   version="1.1"><metadata
     id="metadata8"><rdf:RDF><cc:Work
         rdf:about=""><dc:format>image/svg+xml</dc:format><dc:type
           rdf:resource="http://purl.org/dc/dcmitype/StillImage" /></cc:Work></rdf:RDF></metadata><defs
     id="defs6"><clipPath
       id="clipPath26"
       clipPathUnits="userSpaceOnUse"><path
         id="path24"
         d="M 0,481.89 H 850.39 V 0 H 0 Z" /></clipPath></defs><g
     transform="matrix(1.3333333,0,0,-1.3333333,0,642.52)"
     id="g10"><g
       transform="translate(294.5039,77.0204)"
       id="g12"><path
         id="path14"
         style="fill:#231f20;fill-opacity:1;fill-rule:nonzero;stroke:none"
         d="m 0,0 v 18.623 h 3.886 v -6.975 h 7.28 v 6.975 h 3.903 V 0 H 11.166 V 8.43 H 3.886 V 0 Z" /></g><g
       transform="translate(320.7116,91.4941)"
       id="g16"><path
         id="path18"
         style="fill:#231f20;fill-opacity:1;fill-rule:nonzero;stroke:none"
         d="M 0,0 -2.46,-7.483 H 2.489 Z M -8.779,-14.474 -2.198,4.15 H 2.316 L 8.91,-14.474 H 4.775 l -1.251,3.786 h -7.061 l -1.238,-3.786 z" /></g><g
       id="g20"><g
         clip-path="url(#clipPath26)"
         id="g22"><g
           transform="translate(342.2168,90.0523)"
           id="g28"><path
             id="path30"
             style="fill:#231f20;fill-opacity:1;fill-rule:nonzero;stroke:none"
             d="m 0,0 c -0.069,0.893 -0.456,1.599 -1.165,2.118 -0.708,0.519 -1.631,0.78 -2.766,0.78 -0.99,0 -1.765,-0.218 -2.324,-0.655 -0.558,-0.437 -0.836,-1.044 -0.836,-1.821 0,-0.553 0.291,-0.984 0.874,-1.296 0.571,-0.301 1.791,-0.659 3.655,-1.078 2.717,-0.601 4.532,-1.299 5.446,-2.095 0.911,-0.786 1.367,-2.049 1.367,-3.786 0,-1.748 -0.69,-3.135 -2.068,-4.164 -1.378,-1.029 -3.242,-1.543 -5.589,-1.543 -2.359,0 -4.203,0.545 -5.527,1.638 -1.326,1.091 -2.032,2.643 -2.119,4.652 h 3.742 c 0.04,-0.992 0.398,-1.754 1.078,-2.286 0.68,-0.534 1.621,-0.801 2.826,-0.801 1.241,0 2.213,0.202 2.911,0.603 0.699,0.404 1.048,0.96 1.048,1.668 0,0.698 -0.252,1.214 -0.757,1.543 -0.485,0.33 -1.535,0.676 -3.145,1.034 -2.95,0.659 -4.926,1.373 -5.925,2.14 -0.992,0.757 -1.487,1.941 -1.487,3.553 0,1.806 0.656,3.24 1.967,4.302 1.311,1.063 3.081,1.595 5.315,1.595 2.086,0 3.782,-0.551 5.087,-1.652 C 2.913,3.347 3.64,1.864 3.786,0 Z" /></g><g
           transform="translate(359.5143,90.0523)"
           id="g32"><path
             id="path34"
             style="fill:#231f20;fill-opacity:1;fill-rule:nonzero;stroke:none"
             d="m 0,0 c -0.069,0.893 -0.456,1.599 -1.165,2.118 -0.708,0.519 -1.631,0.78 -2.766,0.78 -0.99,0 -1.765,-0.218 -2.324,-0.655 -0.558,-0.437 -0.836,-1.044 -0.836,-1.821 0,-0.553 0.291,-0.984 0.874,-1.296 0.571,-0.301 1.791,-0.659 3.655,-1.078 2.717,-0.601 4.532,-1.299 5.446,-2.095 0.911,-0.786 1.367,-2.049 1.367,-3.786 0,-1.748 -0.69,-3.135 -2.068,-4.164 -1.378,-1.029 -3.242,-1.543 -5.589,-1.543 -2.359,0 -4.203,0.545 -5.527,1.638 -1.326,1.091 -2.032,2.643 -2.119,4.652 h 3.742 c 0.04,-0.992 0.398,-1.754 1.078,-2.286 0.68,-0.534 1.621,-0.801 2.826,-0.801 1.241,0 2.213,0.202 2.911,0.603 0.699,0.404 1.048,0.96 1.048,1.668 0,0.698 -0.252,1.214 -0.757,1.543 -0.485,0.33 -1.535,0.676 -3.145,1.034 -2.95,0.659 -4.926,1.373 -5.925,2.14 -0.992,0.757 -1.487,1.941 -1.487,3.553 0,1.806 0.656,3.24 1.967,4.302 1.311,1.063 3.081,1.595 5.315,1.595 2.086,0 3.782,-0.551 5.087,-1.652 C 2.913,3.347 3.64,1.864 3.786,0 Z" /></g><g
           transform="translate(366.7212,77.0204)"
           id="g36"><path
             id="path38"
             style="fill:#231f20;fill-opacity:1;fill-rule:nonzero;stroke:none"
             d="M 0,0 V 18.623 H 13.701 V 15.318 H 3.888 v -3.959 h 9.099 V 8.154 H 3.888 V 3.306 h 10.25 V 0 Z" /></g><g
           transform="translate(384.0187,77.0204)"
           id="g40"><path
             id="path42"
             style="fill:#231f20;fill-opacity:1;fill-rule:nonzero;stroke:none"
             d="M 0,0 V 18.623 H 13.701 V 15.318 H 3.888 v -3.959 h 9.099 V 8.154 H 3.888 V 3.306 h 10.25 V 0 Z" /></g><g
           transform="translate(401.3162,77.0204)"
           id="g44"><path
             id="path46"
             style="fill:#231f20;fill-opacity:1;fill-rule:nonzero;stroke:none"
             d="M 0,0 V 18.623 H 13.25 V 15.318 H 3.888 V 11.08 h 8.154 V 7.877 H 3.888 V 0 Z" /></g><g
           transform="translate(427.9908,77.0204)"
           id="g48"><path
             id="path50"
             style="fill:#231f20;fill-opacity:1;fill-rule:nonzero;stroke:none"
             d="M 0,0 H -3.625 V 18.623 H 0.452 L 7.92,5.564 v 13.059 h 3.64 V 0 H 7.689 L 0,13.411 Z" /></g><g
           transform="translate(450.6183,91.4941)"
           id="g52"><path
             id="path54"
             style="fill:#231f20;fill-opacity:1;fill-rule:nonzero;stroke:none"
             d="m 0,0 -2.461,-7.483 h 4.95 z M -8.779,-14.474 -2.198,4.15 H 2.314 L 8.91,-14.474 H 4.775 l -1.251,3.786 h -7.063 l -1.236,-3.786 z" /></g><g
           transform="translate(466.0519,77.0204)"
           id="g56"><path
             id="path58"
             style="fill:#231f20;fill-opacity:1;fill-rule:nonzero;stroke:none"
             d="m 0,0 v 15.318 h -5.634 v 3.305 H 9.508 V 15.318 H 3.888 L 3.888,0 Z" /></g><path
           id="path60"
           style="fill:#231f20;fill-opacity:1;fill-rule:nonzero;stroke:none"
           d="m 477.554,95.644 h 3.886 V 77.021 h -3.886 z" /><g
           transform="translate(493.1916,79.8161)"
           id="g62"><path
             id="path64"
             style="fill:#231f20;fill-opacity:1;fill-rule:nonzero;stroke:none"
             d="m 0,0 c 1.582,0 2.822,0.568 3.72,1.703 0.897,1.138 1.347,2.714 1.347,4.733 0,2.067 -0.45,3.684 -1.347,4.848 -0.898,1.165 -2.138,1.748 -3.72,1.748 -1.582,0 -2.822,-0.583 -3.72,-1.748 C -4.619,10.12 -5.067,8.503 -5.067,6.436 -5.067,4.417 -4.62,2.841 -3.728,1.703 -2.835,0.568 -1.593,0 0,0 m 0,-3.304 c -2.738,0 -4.914,0.872 -6.531,2.62 -1.615,1.747 -2.424,4.111 -2.424,7.092 0,3.048 0.809,5.464 2.424,7.25 1.617,1.787 3.793,2.68 6.531,2.68 2.747,0 4.927,-0.893 6.536,-2.68 C 8.148,11.872 8.955,9.456 8.955,6.408 8.955,3.427 8.148,1.063 6.536,-0.684 4.927,-2.432 2.747,-3.304 0,-3.304" /></g><g
           transform="translate(508.698,77.0204)"
           id="g66"><path
             id="path68"
             style="fill:#231f20;fill-opacity:1;fill-rule:nonzero;stroke:none"
             d="M 0,0 H -3.625 V 18.623 H 0.452 L 7.92,5.564 v 13.059 h 3.64 V 0 H 7.689 L 0,13.411 Z" /></g><g
           transform="translate(531.3256,91.4941)"
           id="g70"><path
             id="path72"
             style="fill:#231f20;fill-opacity:1;fill-rule:nonzero;stroke:none"
             d="M 0,0 -2.461,-7.483 H 2.49 Z M -8.779,-14.474 -2.198,4.15 H 2.314 L 8.91,-14.474 H 4.775 l -1.251,3.786 h -7.063 l -1.236,-3.786 z" /></g><g
           transform="translate(542.7383,77.0204)"
           id="g74"><path
             id="path76"
             style="fill:#231f20;fill-opacity:1;fill-rule:nonzero;stroke:none"
             d="M 0,0 V 18.623 H 3.888 V 3.306 h 9.26 V 0 Z" /></g><g
           transform="translate(259.7493,98.2556)"
           id="g78"><path
             id="path80"
             style="fill:#231f20;fill-opacity:1;fill-rule:nonzero;stroke:none"
             d="M 0,0 C 0,0.546 0.106,1.065 0.321,1.552 0.536,2.04 0.829,2.47 1.201,2.841 1.571,3.212 1.995,3.5 2.475,3.705 2.953,3.91 3.455,4.012 3.984,4.012 4.51,4.012 5.018,3.91 5.506,3.705 5.993,3.5 6.423,3.212 6.794,2.841 7.166,2.47 7.453,2.04 7.659,1.552 7.864,1.065 7.965,0.546 7.965,0 7.965,-0.567 7.864,-1.089 7.659,-1.567 7.453,-2.046 7.166,-2.461 6.794,-2.813 6.423,-3.164 5.993,-3.442 5.506,-3.647 5.018,-3.852 4.51,-3.955 3.984,-3.955 c -0.529,0 -1.031,0.103 -1.509,0.308 -0.48,0.205 -0.904,0.483 -1.274,0.834 -0.372,0.352 -0.665,0.767 -0.88,1.246 C 0.106,-1.089 0,-0.567 0,0 m -9.373,0 c 0,0.546 0.107,1.065 0.322,1.552 0.215,0.488 0.508,0.918 0.878,1.289 0.371,0.371 0.796,0.659 1.275,0.864 0.478,0.205 0.981,0.307 1.508,0.307 0.528,0 1.035,-0.102 1.522,-0.307 C -3.378,3.5 -2.949,3.212 -2.579,2.841 -2.207,2.47 -1.92,2.04 -1.714,1.552 -1.509,1.065 -1.406,0.546 -1.406,0 c 0,-0.567 -0.103,-1.089 -0.308,-1.567 -0.206,-0.479 -0.493,-0.894 -0.865,-1.246 -0.37,-0.351 -0.799,-0.629 -1.289,-0.834 -0.487,-0.205 -0.994,-0.308 -1.522,-0.308 -0.527,0 -1.03,0.103 -1.508,0.308 -0.479,0.205 -0.904,0.483 -1.275,0.834 -0.37,0.352 -0.663,0.767 -0.878,1.246 -0.215,0.478 -0.322,1 -0.322,1.567 m 34.912,15.904 h -2.107 c -2.383,0 -3.828,0.127 -4.336,0.381 l -0.321,2.842 c 0,-1.446 -0.12,-2.636 -0.351,-3.574 C 17.486,11.999 14.976,9.392 10.895,7.733 8.044,6.561 4.637,5.965 0.672,5.945 c -3.203,0 -6.042,0.323 -8.522,0.967 -4.297,1.153 -7.656,3.076 -10.076,5.771 -2.46,2.713 -3.691,5.965 -3.691,9.753 0,1.425 0.098,2.754 0.293,3.984 0.156,1.308 0.625,3.104 1.406,5.389 l 9.051,-1.669 c -0.761,-2.226 -1.201,-3.789 -1.318,-4.687 -0.137,-0.957 -0.205,-1.963 -0.205,-3.017 0,-1.933 0.585,-3.554 1.757,-4.862 1.249,-1.387 3.095,-2.402 5.536,-3.046 1.522,-0.41 3.34,-0.616 5.448,-0.616 h 0.293 c 2.557,0 4.637,0.333 6.238,0.997 1.406,0.566 2.245,1.366 2.519,2.402 0.098,0.39 0.146,0.8 0.146,1.229 0,1.269 -0.469,2.207 -1.404,2.813 -0.723,0.468 -2.15,0.947 -4.277,1.435 l -2.549,0.38 2.577,7.675 c 2.755,-0.411 4.872,-0.889 6.357,-1.435 1.328,-0.411 2.45,-0.889 3.369,-1.435 0.43,-0.216 1.113,-0.567 2.051,-1.056 3.436,-2.031 6.021,-3.046 7.761,-3.046 h 2.107 z" /></g><g
           transform="translate(291.9967,147.8145)"
           id="g82"><path
             id="path84"
             style="fill:#231f20;fill-opacity:1;fill-rule:nonzero;stroke:none"
             d="m 0,0 c 0,0.547 0.106,1.065 0.321,1.553 0.215,0.487 0.508,0.917 0.88,1.289 0.37,0.37 0.795,0.659 1.274,0.863 0.478,0.206 0.98,0.308 1.509,0.308 0.526,0 1.034,-0.102 1.522,-0.308 C 5.993,3.501 6.424,3.212 6.794,2.842 7.166,2.47 7.453,2.04 7.659,1.553 7.864,1.065 7.967,0.547 7.967,0 7.967,-0.566 7.864,-1.089 7.659,-1.567 7.453,-2.045 7.166,-2.461 6.794,-2.812 6.424,-3.163 5.993,-3.441 5.506,-3.646 5.018,-3.851 4.51,-3.954 3.984,-3.954 c -0.529,0 -1.031,0.103 -1.509,0.308 -0.479,0.205 -0.904,0.483 -1.274,0.834 -0.372,0.351 -0.665,0.767 -0.88,1.245 C 0.106,-1.089 0,-0.566 0,0 m -8.173,-33.655 v 7.967 h 3.896 c 1.171,0 2.09,0.342 2.753,1.026 0.82,0.839 1.231,2.119 1.231,3.837 v 14.001 h 9.255 v -14.558 c 0.079,-1.405 0.479,-2.489 1.201,-3.251 0.684,-0.703 1.571,-1.055 2.665,-1.055 h 4.014 v -7.967 h -4.014 c -4.002,0 -6.835,0.879 -8.493,2.636 -1.681,-1.757 -4.552,-2.636 -8.612,-2.636 z" /></g><g
           transform="translate(342.1131,122.127)"
           id="g86"><path
             id="path88"
             style="fill:#231f20;fill-opacity:1;fill-rule:nonzero;stroke:none"
             d="m 0,0 c 1.952,0 3.554,0.644 4.803,1.933 1.367,1.406 2.051,3.398 2.051,5.975 0,2.89 -0.665,5.048 -1.993,6.474 -1.131,1.191 -2.773,1.787 -4.921,1.787 h -16.255 c -2.148,0 -3.789,-0.596 -4.921,-1.787 -1.328,-1.426 -1.991,-3.584 -1.991,-6.474 l 0,-7.908 z M -34.739,-7.967 V 0 h 5.097 l -2.841,2.842 v 27.151 h 9.226 v -9.109 c 0.547,2.167 2.861,3.252 6.942,3.252 H -0.06 c 5.097,0 9.129,-1.582 12.098,-4.746 2.695,-2.851 4.042,-6.677 4.042,-11.482 0,-4.51 -1.397,-8.211 -4.189,-11.101 C 8.845,-6.376 4.882,-7.967 0,-7.967 Z" /></g><g
           transform="translate(384.847,136.4205)"
           id="g90"><path
             id="path92"
             style="fill:#231f20;fill-opacity:1;fill-rule:nonzero;stroke:none"
             d="M 0,0 C 0.058,0.567 -0.097,0.977 -0.469,1.231 -1.464,1.66 -2.637,1.875 -3.984,1.875 h -0.087 c -2.148,0 -3.79,-0.605 -4.921,-1.816 -1.328,-1.406 -1.991,-3.554 -1.991,-6.444 0,-2.577 0.681,-4.569 2.049,-5.976 1.249,-1.288 3.544,-1.932 6.883,-1.932 v -0.029 H 0 Z M 8.406,-22.261 C 8.173,-23.374 7.498,-24.857 6.385,-26.713 5.72,-27.962 4.833,-29.261 3.72,-30.608 2.704,-31.819 1.093,-33.439 -1.113,-35.47 l -6.824,4.832 c 2.381,2.187 3.963,3.76 4.743,4.716 0.802,0.957 1.407,1.816 1.818,2.578 l 0.584,1.083 h -3.309 c -4.901,0 -8.875,1.592 -11.921,4.775 -2.792,2.89 -4.189,6.591 -4.189,11.101 0,4.784 1.349,8.611 4.043,11.482 2.968,3.124 7,4.696 12.097,4.716 h 0.087 c 2.871,0 5.448,-0.509 7.732,-1.524 C 7.401,6.708 9.226,4.336 9.226,1.172 v -15.465 h 2.286 v -7.968 z" /></g><g
           transform="translate(409.2468,152.1202)"
           id="g94"><path
             id="path96"
             style="fill:#231f20;fill-opacity:1;fill-rule:nonzero;stroke:none"
             d="m 0,0 v -26.742 c 0,-2.988 -1.083,-5.556 -3.251,-7.704 -2.324,-2.342 -5.185,-3.514 -8.582,-3.514 h -2.519 v 7.967 h 2.519 c 0.566,0 1.102,0.254 1.61,0.762 0.665,0.644 0.997,1.473 0.997,2.489 V 0 Z" /></g><path
           id="path98"
           style="fill:#231f20;fill-opacity:1;fill-rule:nonzero;stroke:none"
           d="m 424.918,116.093 h -9.228 v 36.027 h 9.228 z" /><g
           transform="translate(477.5814,151.7691)"
           id="g100"><path
             id="path102"
             style="fill:#231f20;fill-opacity:1;fill-rule:nonzero;stroke:none"
             d="M 0,0 C 0,0.546 0.106,1.064 0.321,1.552 0.536,2.04 0.829,2.47 1.201,2.842 1.571,3.212 1.996,3.5 2.475,3.705 2.953,3.91 3.455,4.012 3.984,4.012 4.51,4.012 5.018,3.91 5.506,3.705 5.995,3.5 6.424,3.212 6.794,2.842 7.166,2.47 7.453,2.04 7.659,1.552 7.864,1.064 7.967,0.546 7.967,0 7.967,-0.567 7.864,-1.089 7.659,-1.567 7.453,-2.046 7.166,-2.461 6.794,-2.812 6.424,-3.164 5.995,-3.442 5.506,-3.646 5.018,-3.852 4.51,-3.955 3.984,-3.955 c -0.529,0 -1.031,0.103 -1.509,0.309 -0.479,0.204 -0.904,0.482 -1.274,0.834 -0.372,0.351 -0.665,0.766 -0.88,1.245 C 0.106,-1.089 0,-0.567 0,0 m 9.05,-15.26 c -1.113,1.191 -2.764,1.786 -4.951,1.786 -2.147,0 -3.778,-0.595 -4.891,-1.786 -1.346,-1.426 -2.021,-3.584 -2.021,-6.474 0,-2.577 0.684,-4.569 2.051,-5.975 1.249,-1.289 2.861,-1.933 4.833,-1.933 2.07,0 3.709,0.625 4.921,1.875 1.366,1.405 2.051,3.417 2.051,6.033 0,2.929 -0.665,5.086 -1.993,6.474 m -24.252,-22.349 c -5.097,0 -9.129,1.571 -12.096,4.715 -2.695,2.871 -4.044,6.698 -4.044,11.482 0,1.153 0.097,2.285 0.294,3.398 0.194,1.133 0.75,2.763 1.669,4.891 l 7.967,-2.255 c -0.82,-1.952 -1.288,-3.251 -1.406,-3.895 -0.118,-0.625 -0.176,-1.338 -0.176,-2.139 0,-2.89 0.663,-5.038 1.993,-6.443 1.132,-1.191 2.772,-1.787 4.919,-1.787 h 5.039 c 2.129,-2.109 3.194,-3.173 3.194,-3.193 -2.794,2.89 -4.189,6.591 -4.189,11.101 0,4.804 1.346,8.631 4.041,11.482 2.988,3.164 7.02,4.745 12.096,4.745 5.117,0 9.159,-1.572 12.128,-4.715 2.693,-2.852 4.042,-6.689 4.042,-11.512 0,-4.569 -1.406,-8.289 -4.219,-11.16 0,0.02 1.085,1.104 3.251,3.252 h 3.076 v -7.967 z" /></g><g
           transform="translate(511.2071,107.0426)"
           id="g104"><path
             id="path106"
             style="fill:#231f20;fill-opacity:1;fill-rule:nonzero;stroke:none"
             d="M 0,0 C 0,0.547 0.106,1.065 0.321,1.552 0.536,2.04 0.829,2.471 1.201,2.842 1.571,3.212 1.996,3.5 2.475,3.705 2.953,3.91 3.455,4.012 3.984,4.012 4.51,4.012 5.018,3.91 5.506,3.705 5.993,3.5 6.424,3.212 6.794,2.842 7.166,2.471 7.453,2.04 7.659,1.552 7.864,1.065 7.967,0.547 7.967,0 7.967,-0.566 7.864,-1.089 7.659,-1.567 7.453,-2.045 7.166,-2.461 6.794,-2.812 6.424,-3.164 5.993,-3.442 5.506,-3.646 5.018,-3.852 4.51,-3.955 3.984,-3.955 c -0.529,0 -1.031,0.103 -1.509,0.309 -0.479,0.204 -0.904,0.482 -1.274,0.834 -0.372,0.351 -0.665,0.767 -0.88,1.245 C 0.106,-1.089 0,-0.566 0,0 m -9.373,0 c 0,0.547 0.106,1.065 0.321,1.552 0.215,0.488 0.508,0.919 0.879,1.29 0.37,0.37 0.796,0.658 1.274,0.863 0.478,0.205 0.983,0.307 1.509,0.307 0.527,0 1.035,-0.102 1.522,-0.307 C -3.378,3.5 -2.949,3.212 -2.579,2.842 -2.207,2.471 -1.92,2.04 -1.714,1.552 -1.509,1.065 -1.406,0.547 -1.406,0 c 0,-0.566 -0.103,-1.089 -0.308,-1.567 -0.206,-0.478 -0.493,-0.894 -0.865,-1.245 -0.37,-0.352 -0.799,-0.63 -1.289,-0.834 -0.487,-0.206 -0.995,-0.309 -1.522,-0.309 -0.526,0 -1.031,0.103 -1.509,0.309 -0.478,0.204 -0.904,0.482 -1.274,0.834 -0.371,0.351 -0.664,0.767 -0.879,1.245 -0.215,0.478 -0.321,1.001 -0.321,1.567 m -3.34,7.117 v 7.967 h 3.896 c 1.171,0 2.09,0.342 2.753,1.026 0.82,0.839 1.231,2.118 1.231,3.837 V 33.948 H 4.422 V 19.39 C 4.501,17.985 4.9,16.901 5.623,16.139 6.307,15.436 7.194,15.084 8.288,15.084 h 4.014 V 7.117 H 8.288 C 4.286,7.117 1.453,7.996 -0.205,9.753 -1.886,7.996 -4.757,7.117 -8.817,7.117 Z" /></g><g
           transform="translate(559.1254,122.127)"
           id="g108"><path
             id="path110"
             style="fill:#231f20;fill-opacity:1;fill-rule:nonzero;stroke:none"
             d="m 0,0 c 1.953,0 3.554,0.644 4.805,1.933 1.365,1.406 2.049,3.398 2.049,5.975 0,2.89 -0.663,5.048 -1.991,6.474 -1.133,1.191 -2.773,1.787 -4.921,1.787 h -16.255 c -2.15,0 -3.79,-0.596 -4.921,-1.787 -1.328,-1.426 -1.993,-3.584 -1.993,-6.474 l 0,-7.908 z M -37.081,-7.967 V 0 h 4.54 v 9.198 c -0.078,4.471 -0.868,7.83 -2.371,10.075 l 7.731,4.657 1.612,-3.953 c 1.698,2.772 4.783,4.159 9.256,4.159 h 16.255 c 5.097,0 9.129,-1.582 12.096,-4.746 2.695,-2.851 4.044,-6.677 4.044,-11.482 0,-4.51 -1.397,-8.211 -4.189,-11.101 0,0.02 1.064,1.085 3.193,3.193 h 3.25 v -7.967 z" /></g><g
           transform="translate(580.4792,139.5552)"
           id="g112"><path
             id="path114"
             style="fill:#231f20;fill-opacity:1;fill-rule:nonzero;stroke:none"
             d="m 0,0 c 0.566,0.897 1.219,1.699 1.961,2.402 1.485,1.444 3.242,2.528 5.272,3.251 1.972,0.702 4.12,1.054 6.445,1.054 6.619,0 11.286,-2.577 14.001,-7.732 1.504,-2.871 2.635,-7.792 3.397,-14.763 0.254,-2.343 0.469,-4.003 0.645,-4.979 0.039,-0.176 0.058,-0.391 0.058,-0.645 0,-1.054 -0.409,-1.952 -1.229,-2.695 -0.783,-0.742 -1.748,-1.161 -2.901,-1.258 -0.235,-0.02 -0.468,-0.03 -0.702,-0.03 H -4.482 v 7.967 l 26.478,-0.029 -0.117,0.879 c -0.585,5.369 -1.308,9.06 -2.167,11.071 -1.212,2.832 -3.223,4.247 -6.034,4.247 -1.074,0 -2.032,-0.146 -2.87,-0.439 C 10.064,-1.973 9.431,-2.363 8.903,-2.87 8.591,-3.164 8.318,-3.505 8.083,-3.896 7.81,-4.306 7.381,-5.312 6.794,-6.913 l -9.05,1.875 C -1.3,-2.539 -0.547,-0.86 0,0" /></g><g
           transform="translate(480.0205,178.6314)"
           id="g116"><path
             id="path118"
             style="fill:#5aa044;fill-opacity:1;fill-rule:nonzero;stroke:none"
             d="m 0,0 c -23.764,17.702 -40.761,49.868 -43.317,79.881 -8.198,96.1 116.147,74.63 85.523,9.026 C 25.398,148.852 -59.586,93.856 0,0" /></g><g
           transform="translate(378.1155,386.9677)"
           id="g120"><path
             id="path122"
             style="fill:#f8be43;fill-opacity:1;fill-rule:nonzero;stroke:none"
             d="m 0,0 c -8.792,-11.741 -6.401,-28.386 5.34,-37.178 11.741,-8.792 28.386,-6.401 37.178,5.34 8.791,11.741 6.401,28.386 -5.34,37.178 C 25.437,14.132 8.792,11.741 0,0" /></g><g
           transform="translate(468.2104,182.7961)"
           id="g124"><path
             id="path126"
             style="fill:#f8be43;fill-opacity:1;fill-rule:nonzero;stroke:none"
             d="M 0,0 C -0.418,0.268 -0.859,0.539 -1.272,0.807 L -0.417,0.278 C -0.277,0.185 -0.14,0.092 0,0 m -43.066,126.159 c 1.134,2.094 2.265,4.189 3.417,6.273 2.661,4.811 5.468,9.546 8.001,14.423 2.732,5.261 5.435,10.545 7.401,16.17 2.293,6.56 2.749,13.148 0.354,19.747 -3.008,8.288 -9.001,14.375 -14.833,20.002 0.842,-1.806 2.644,-3.429 3.99,-5.426 3.139,-4.66 5.585,-9.601 6.421,-15.204 1.046,-7.01 -0.644,-13.182 -6.35,-17.698 -3.871,-3.063 -8.378,-5.086 -13.028,-6.772 -9.201,-3.337 -18.779,-3.362 -28.352,-3.18 -4.713,0.09 -9.423,0.413 -14.14,0.282 -6.596,-0.183 -13.068,-1.192 -19.21,-3.644 -8.29,-3.309 -15.252,-8.63 -21.343,-15.056 -4.983,-5.257 -9.329,-11.051 -13.409,-17.036 -0.202,-0.296 -0.652,-0.548 -0.294,-1.192 0.407,0.545 0.765,1.027 1.127,1.506 4.448,5.868 9.419,11.249 15.097,15.943 4.623,3.823 9.578,7.131 15.571,8.372 7.103,1.472 12.278,-0.878 16.17,-5.797 4.055,-5.125 6.242,-11.261 8.158,-17.451 2.857,-9.224 4.416,-18.706 5.658,-28.262 1.09,-8.389 2.612,-16.629 5.495,-24.45 l -0.002,-0.008 c 0.04,-0.105 0.089,-0.203 0.13,-0.307 1.092,-2.922 2.364,-5.788 3.893,-8.576 C -48.557,10.768 9.88,-6.092 9.88,-6.092 l -28.508,20.3 c 0.108,-0.096 0.213,-0.193 0.322,-0.289 -0.157,0.129 -0.299,0.255 -0.455,0.384 l 0.133,-0.095 c -53.481,47.756 -29.77,101.579 -24.438,111.951" /></g><g
           transform="translate(483.3325,362.668)"
           id="g128"><path
             id="path130"
             style="fill:#5aa044;fill-opacity:1;fill-rule:nonzero;stroke:none"
             d="m 0,0 c 6.818,1.907 16.071,4.036 21.031,5.146 2.075,0.465 4.18,-0.647 4.956,-2.627 1.311,-3.342 3.049,-8.7 3.231,-13.977 0.049,-1.404 1.708,-2.092 2.73,-1.129 2.764,2.602 6.381,8.279 5.021,19.686 -0.737,6.182 -4.601,10.125 -7.178,12.11 -0.855,0.659 -0.689,2.004 0.308,2.419 1.424,0.592 3.071,1.506 4.004,2.802 1.883,2.613 5.47,10.979 -11.68,16.897 C 6.303,46.889 -4.029,34.391 5.538,26.494 6.138,25.999 5.905,25.038 5.144,24.881 0.674,23.961 -9.397,20.853 -12.061,11.274 -13.95,4.484 -13.617,-0.105 -12.928,-2.87 -12.541,-4.419 -10.722,-5.062 -9.43,-4.124 -7.765,-2.915 -4.881,-1.365 0,0" /></g><g
           transform="translate(472.5233,342.4679)"
           id="g132"><path
             id="path134"
             style="fill:#5aa044;fill-opacity:1;fill-rule:nonzero;stroke:none"
             d="m 0,0 c 6.461,-11.068 20.671,-14.803 31.739,-8.342 5.083,2.967 8.614,7.571 10.327,12.753 -0.433,-0.043 -0.874,-0.029 -1.309,0.062 -1.411,0.293 -2.59,1.252 -3.155,2.567 -0.218,0.506 -0.338,1.046 -0.357,1.605 -0.167,4.809 -1.746,9.755 -3.041,13.058 l -0.019,0.047 c -0.288,0.67 -1.018,1.04 -1.736,0.879 -4.897,-1.096 -14.123,-3.218 -20.89,-5.11 -4.644,-1.3 -7.21,-2.727 -8.544,-3.696 -1.251,-0.909 -2.819,-1.196 -4.302,-0.788 -0.655,0.18 -1.249,0.49 -1.766,0.895 C -3.509,9.244 -2.555,4.377 0,0" /></g><g
           transform="translate(349.701,218.9702)"
           id="g136"><path
             id="path138"
             style="fill:#5aa044;fill-opacity:1;fill-rule:nonzero;stroke:none"
             d="m 0,0 c 0,0 0.361,-0.019 1.039,-0.072 18.97,-2.937 43.479,-9.28 72.098,-24.365 28.622,-15.086 47.316,-18.819 47.316,-18.819 -8.606,2.227 -23.819,11.204 -35.982,18.982 l -11.785,7.965 c -1.976,1.351 -3.944,2.617 -5.909,3.842 -0.483,0.338 -0.765,0.536 -0.765,0.536 l -0.34,0.139 c -49.174,30.144 -93.731,22.09 -93.731,22.09 0,0 15.531,-40.654 71.407,-54.492 l 0.071,-0.05 c 0,0 0.194,-0.038 0.485,-0.094 9.547,-2.322 20.26,-3.856 32.268,-4.282 0.17,-0.013 0.337,-0.028 0.507,-0.04 0,0 6.135,-0.436 13.592,0.056 0.571,0.02 1.112,0.013 1.687,0.038 -0.029,0.028 -0.061,0.055 -0.09,0.083 4.382,0.362 9.086,1.057 13.213,2.362 0,0 -8.536,1.113 -18.071,7.259 C 77.476,-32.716 27.05,-8.032 0,0" /></g></g></g></g></svg>